<?xml version="1.0" standalone="no"?>
<!DOCTYPE svg PUBLIC "-//W3C//DTD SVG 20010904//EN"
 "http://www.w3.org/TR/2001/REC-SVG-20010904/DTD/svg10.dtd">
<svg version="1.0" xmlns="http://www.w3.org/2000/svg"
 width="460.000000pt" height="460.000000pt" viewBox="0 0 460.000000 460.000000"
 preserveAspectRatio="xMidYMid meet">
<metadata>
Created by potrace 1.15, written by Peter Selinger 2001-2017
</metadata>
<g transform="translate(0.000000,460.000000) scale(0.100000,-0.100000)"
fill="#000000" stroke="none">
<path d="M2142 4539 c-32 -34 -67 -65 -80 -70 -13 -5 -20 -13 -17 -19 3 -5 1
-10 -4 -10 -6 0 -11 -5 -11 -11 0 -12 -37 -61 -80 -107 -14 -15 -44 -53 -68
-84 -26 -34 -73 -77 -118 -107 -41 -28 -77 -51 -79 -51 -6 0 -159 -115 -193
-145 -43 -37 -152 -150 -152 -157 0 -3 -6 -13 -13 -20 -43 -44 -130 -196 -156
-273 -5 -16 -24 -64 -41 -105 -18 -41 -44 -118 -60 -170 -16 -52 -35 -117 -44
-145 -36 -119 -101 -485 -92 -521 9 -33 30 -26 34 12 10 122 48 348 73 439 17
61 34 128 39 150 5 22 23 78 40 125 18 47 42 114 55 150 30 86 108 246 143
291 73 96 270 279 300 279 5 0 37 22 73 50 35 27 67 50 71 50 8 0 -20 -50 -59
-109 -23 -34 -31 -67 -14 -56 10 6 92 123 128 183 12 20 28 41 36 47 7 5 22
24 33 40 31 48 207 255 273 320 58 56 75 85 50 85 -6 0 -36 -28 -67 -61z"/>
<path d="M2266 4431 c73 -150 102 -219 113 -271 23 -103 35 -140 48 -140 20 0
16 29 -17 123 -16 48 -30 92 -30 98 0 16 182 4 265 -17 167 -41 347 -97 400
-124 21 -11 48 -20 60 -20 17 0 16 3 -10 20 -96 65 -317 133 -475 146 -41 4
-81 11 -88 17 -7 5 -46 10 -86 11 l-73 1 -26 50 c-13 28 -30 64 -37 82 -6 17
-20 39 -31 49 -10 9 -19 22 -19 29 0 6 -6 12 -13 12 -9 0 -3 -21 19 -66z"/>
<path d="M3326 3961 c-3 -5 13 -29 35 -55 24 -28 35 -46 26 -46 -7 0 -22 8
-31 19 -9 10 -43 30 -74 44 -55 25 -61 25 -172 17 -63 -5 -139 -14 -167 -19
-65 -13 -286 -92 -362 -130 -31 -16 -67 -32 -81 -36 -14 -4 -50 -24 -80 -44
-30 -19 -66 -41 -80 -48 -23 -11 -91 -73 -151 -139 -15 -16 -41 -54 -60 -84
-18 -30 -43 -68 -56 -83 -13 -16 -23 -33 -23 -38 0 -6 -11 -25 -25 -43 -13
-17 -36 -59 -51 -92 -14 -32 -32 -66 -39 -74 -7 -8 -23 -40 -35 -70 -12 -30
-28 -68 -35 -85 -43 -94 -55 -125 -55 -135 0 -6 -16 -50 -35 -97 -20 -47 -33
-88 -30 -91 3 -3 8 3 11 13 3 11 13 38 24 60 l18 40 1 -37 c1 -20 -6 -63 -15
-95 -30 -115 -44 -220 -44 -343 0 -163 25 -260 66 -260 21 0 17 44 -11 110
-14 33 -25 66 -25 75 0 22 28 18 35 -5 4 -11 24 -34 46 -52 21 -17 41 -39 44
-49 4 -10 21 -37 40 -59 l34 -41 -4 31 c-2 16 -2 30 -1 30 2 0 21 -14 42 -31
40 -32 227 -129 249 -129 39 0 195 -114 195 -142 0 -15 -54 -8 -127 15 -40 13
-76 27 -80 30 -16 16 -71 5 -112 -23 -24 -17 -50 -30 -57 -30 -8 0 -48 14 -91
31 -43 17 -94 36 -113 41 -19 5 -51 16 -70 25 -19 8 -55 24 -80 35 -25 10 -73
32 -108 49 -34 16 -69 29 -77 29 -34 0 -308 248 -502 455 -30 33 -53 51 -49
40 4 -11 8 -24 9 -29 6 -28 226 -256 344 -355 154 -130 180 -146 335 -207 79
-31 168 -69 198 -84 30 -15 72 -30 93 -34 58 -11 67 -40 33 -114 -14 -33 -26
-63 -26 -66 0 -4 -13 -26 -28 -49 -39 -56 -64 -107 -67 -135 -4 -28 1 -24 23
16 75 134 108 185 143 216 21 20 45 36 52 36 22 0 204 -39 232 -50 21 -8 25
-16 25 -52 0 -24 7 -52 15 -62 8 -11 15 -27 15 -36 0 -8 25 -35 56 -59 51 -40
60 -43 117 -44 34 0 73 5 85 12 34 18 19 25 -22 10 -28 -10 -43 -10 -78 0 -37
12 -55 22 -114 71 -7 5 -20 29 -29 54 -24 61 -14 123 29 179 26 35 41 44 88
56 l56 15 69 -35 c53 -26 72 -42 86 -71 39 -79 35 -145 -10 -165 -39 -18 -78
-16 -123 7 -34 18 -40 25 -40 53 0 38 -15 57 -46 57 -31 0 -74 -37 -74 -64 0
-33 33 -66 66 -66 15 0 38 -10 50 -21 33 -31 138 -35 177 -7 53 38 73 120 46
197 -9 25 -9 38 1 56 10 19 23 24 84 29 79 8 156 25 156 35 0 3 -55 3 -122 -1
-68 -4 -135 -4 -149 1 -14 5 -47 7 -72 4 -60 -7 -84 1 -66 23 11 13 32 14 143
9 208 -11 403 25 477 89 24 20 48 36 54 36 27 0 89 96 83 128 -3 13 -8 10 -21
-13 -36 -64 -91 -113 -164 -144 -94 -41 -142 -49 -321 -57 -133 -5 -158 -3
-262 19 -63 14 -153 36 -200 50 -107 31 -300 117 -341 151 -17 14 -35 26 -40
26 -6 0 -32 18 -59 41 -38 32 -49 48 -54 81 -4 22 -5 43 -2 45 3 3 26 -15 53
-40 26 -24 62 -51 79 -60 17 -9 36 -23 43 -31 21 -26 34 -18 14 8 -111 142
-133 184 -67 126 20 -17 38 -29 41 -27 2 3 -13 43 -35 89 -47 100 -78 214 -88
321 -8 92 7 104 30 23 9 -30 16 -59 16 -65 0 -6 4 -19 10 -29 5 -9 23 -48 40
-87 17 -38 42 -90 56 -115 13 -25 32 -62 41 -82 19 -44 38 -51 29 -10 -10 42
-25 163 -26 205 0 24 4 36 13 35 6 -2 10 4 8 12 -5 24 -20 152 -21 183 0 47
21 26 45 -43 34 -97 60 -154 81 -170 16 -14 17 -13 10 5 -7 17 -25 123 -26
148 0 4 11 7 25 7 24 0 25 -2 25 -67 0 -90 15 -141 53 -176 17 -16 32 -36 33
-44 2 -9 9 -20 16 -24 23 -15 157 -10 192 6 45 21 95 109 122 213 2 6 14 12
27 12 21 0 25 6 31 46 3 26 6 60 6 75 0 26 -3 29 -33 29 -28 0 -89 29 -64 30
5 0 -1 13 -12 28 -11 16 -23 40 -26 55 -6 22 -4 27 11 26 11 0 27 -4 38 -8 21
-8 49 -78 33 -84 -23 -7 3 -37 33 -37 29 0 30 1 16 23 -20 31 -4 69 26 65 30
-4 35 23 10 59 -16 22 -19 37 -13 76 3 26 10 48 16 48 10 0 13 -10 34 -114 8
-35 17 -55 23 -51 7 5 8 55 4 153 -6 132 -5 144 9 127 8 -11 15 -26 15 -34 0
-14 41 -200 86 -396 17 -69 24 -120 19 -142 -10 -54 10 -40 47 31 18 36 38 65
43 65 6 0 11 -19 12 -43 1 -23 6 -79 10 -124 7 -75 11 -85 42 -117 44 -45 73
-46 99 -3 21 33 45 111 57 180 5 29 10 37 23 35 11 -3 16 -12 14 -28 -4 -39
15 -11 29 41 16 59 9 75 -35 83 -46 9 -52 20 -27 55 12 16 25 39 30 52 13 31
14 3 2 -39 -5 -17 -6 -32 -2 -32 10 0 65 104 81 153 6 20 16 37 22 37 6 0 7
-8 3 -17 -3 -10 -11 -70 -16 -133 -5 -63 -14 -135 -19 -160 -6 -25 -15 -100
-20 -167 -5 -67 -15 -133 -21 -147 -7 -14 -10 -28 -7 -31 11 -11 38 8 38 25 0
11 5 22 10 25 6 3 10 15 10 25 0 10 18 53 40 95 36 68 74 163 116 294 7 24 16
80 20 125 3 44 8 88 11 96 4 8 7 18 8 23 2 4 3 10 5 15 1 4 6 -6 10 -21 10
-31 -1 -158 -25 -293 -8 -48 -15 -97 -15 -109 0 -12 -11 -34 -24 -48 -26 -28
-29 -47 -46 -277 -6 -74 -17 -164 -24 -200 -8 -36 -12 -67 -10 -69 26 -28 68
158 80 354 5 83 15 136 40 216 18 58 36 122 39 143 19 98 25 21 25 -306 l-1
-353 -42 -36 c-23 -20 -52 -39 -65 -43 -38 -12 -188 -87 -166 -83 46 9 48 -11
3 -39 -61 -38 -105 -53 -163 -54 -72 0 -51 -9 25 -11 70 -1 140 24 174 61 10
11 23 20 28 20 6 0 24 11 41 23 17 13 61 40 97 61 61 33 69 42 89 92 20 49 22
65 16 172 -13 247 -19 989 -8 1008 10 17 11 17 22 -10 13 -35 37 -150 45 -219
4 -26 12 -53 19 -59 7 -7 11 -23 9 -37 -4 -24 -3 -24 8 -7 13 22 7 229 -9 281
-5 17 -15 59 -22 95 -14 78 -91 309 -122 365 -12 22 -38 63 -57 90 -68 98 -91
133 -91 142 0 15 -168 184 -174 174z m-863 -948 c24 -80 94 -204 137 -244 52
-47 52 -64 3 -55 -21 3 -59 6 -86 6 -58 0 -59 3 -87 169 -28 164 -26 238 6
193 6 -9 19 -41 27 -69z m873 5 c-13 -90 -69 -344 -79 -355 -5 -7 -25 -13 -43
-13 -45 0 -45 21 1 97 19 32 41 87 50 123 29 127 54 190 73 190 2 0 2 -19 -2
-42z m-1099 -1309 c48 -13 93 -19 120 -16 41 4 44 3 41 -17 -3 -18 -11 -21
-58 -24 -30 -2 -97 1 -149 8 -124 14 -160 33 -108 58 33 16 69 14 154 -9z"/>
<path d="M2880 1481 c0 -5 10 -18 23 -28 12 -10 44 -41 70 -70 l49 -52 -26
-38 c-14 -21 -26 -45 -26 -55 0 -26 -25 -45 -83 -62 -57 -17 -134 -70 -213
-147 l-52 -49 -31 17 c-17 10 -38 33 -48 51 -10 17 -21 32 -25 32 -4 0 -20 19
-35 43 -32 49 -63 84 -63 73 0 -19 68 -126 127 -198 73 -90 79 -119 34 -162
-20 -19 -32 -45 -41 -87 -17 -80 -30 -97 -64 -81 -31 14 -31 17 -7 87 11 30
16 55 13 55 -11 -1 -48 -64 -67 -114 -10 -26 -22 -49 -26 -52 -5 -3 -9 -12 -9
-20 0 -23 48 -18 55 7 4 12 14 19 23 17 14 -3 17 -16 18 -69 1 -47 8 -79 26
-117 14 -29 21 -55 17 -58 -5 -3 -9 -1 -9 4 0 18 -85 102 -123 123 -63 33 -60
18 8 -41 96 -83 110 -135 80 -293 -18 -97 -36 -121 -104 -147 -29 -11 -63 -28
-75 -36 -20 -15 -20 -16 14 -11 57 8 153 37 170 52 8 8 40 23 70 33 135 47
140 48 158 7 18 -40 59 -54 117 -40 l50 11 -35 18 c-62 33 -100 68 -156 142
-30 39 -54 76 -54 80 0 5 -10 27 -22 49 -18 34 -21 58 -22 150 l-1 110 37 -3
c55 -4 54 14 -2 33 -27 9 -53 21 -56 26 -10 16 17 70 60 122 30 36 37 50 28
59 -17 17 -15 43 9 91 37 74 86 124 166 170 91 52 109 58 177 63 28 2 62 5 76
6 14 1 35 -1 48 -6 18 -6 22 -4 22 13 0 13 -10 22 -32 29 -62 19 -77 20 -89 6
-28 -34 -40 0 -14 40 22 33 122 54 174 37 74 -26 84 -38 77 -88 -5 -41 -4 -44
10 -32 34 28 37 59 8 100 -31 45 -69 59 -160 59 -56 0 -63 3 -92 33 -59 63
-152 129 -152 108z"/>
<path d="M3332 1219 c2 -8 38 -25 80 -39 184 -63 285 -164 359 -361 26 -70 32
-99 33 -176 l1 -92 21 20 c19 17 20 25 12 92 -4 39 -12 86 -17 102 -5 17 -15
50 -21 75 -7 25 -15 47 -19 50 -12 10 -41 81 -41 103 0 12 -4 28 -9 36 -7 11
-11 10 -19 -5 -10 -18 -11 -18 -18 1 -10 28 -51 75 -58 68 -8 -8 -46 27 -46
42 0 13 -165 80 -224 91 -30 5 -38 4 -34 -7z"/>
<path d="M1686 988 c-9 -13 -27 -55 -40 -92 -14 -38 -34 -79 -46 -91 -25 -27
-25 -37 1 -53 18 -12 20 -20 15 -54 -4 -22 -13 -52 -20 -67 -8 -15 -18 -45
-21 -66 -11 -60 -17 -63 -82 -53 -48 7 -71 19 -132 66 -41 31 -86 76 -100 99
-15 24 -32 40 -39 38 -7 -3 -10 0 -7 5 7 11 -34 84 -42 76 -2 -2 5 -27 17 -54
15 -35 26 -49 36 -45 8 3 14 2 13 -3 -4 -15 29 -84 41 -84 6 0 29 -18 52 -40
44 -42 171 -110 205 -110 14 0 24 -9 30 -27 9 -25 10 -22 17 31 6 53 27 112
55 156 5 8 12 27 16 43 6 32 30 35 46 6 8 -15 8 -19 0 -15 -6 4 -11 3 -11 -2
0 -8 89 -23 98 -16 4 2 -123 110 -143 121 -16 9 -16 12 24 133 12 36 23 72 24
80 1 8 6 18 12 22 5 4 7 10 3 13 -4 4 -13 -4 -22 -17z"/>
<path d="M1000 655 c0 -10 56 -110 73 -133 63 -80 233 -193 317 -211 52 -11
173 -6 178 7 6 18 -58 43 -80 31 -24 -13 -130 6 -183 32 -100 48 -187 116
-222 173 -14 23 -29 43 -32 46 -4 3 -17 18 -29 34 -12 16 -22 25 -22 21z"/>
</g>
</svg>
